<?xml version="1.0" ?><!DOCTYPE svg  PUBLIC '-//W3C//DTD SVG 1.1//EN'  'http://www.w3.org/Graphics/SVG/1.1/DTD/svg11.dtd'><svg enable-background="new 0 0 512 512" height="512px" id="Calque_1" version="1.1" viewBox="0 0 512 512" width="512px" xml:space="preserve" xmlns="http://www.w3.org/2000/svg" xmlns:xlink="http://www.w3.org/1999/xlink"><path d="M498.612,275.051c1.396-17.13,2.046-36.142,1.884-55.253c-0.001-0.366-0.004-0.673-0.007-0.917l-0.002-0.153  c0-8.192-5.141-16.462-18.167-28.964c0.014-0.021,0.027-0.042,0.043-0.063l0.079-0.116c3.421-5.062,5.792-14.049,1.203-22.727  c-4.742-8.953-14.405-13.492-28.72-13.492c-12.435,0-21.304,4.869-27.087,11.46c-9.813-17.57-22.796-35.881-36.612-41.796  c-6.024-2.583-19.192-5.565-71.168-8.084c-27.5-1.333-54.897-1.954-62.552-2.111l-0.129-0.026l-3.127,0.005l-0.112,0.028  c-8.114,0.168-35.107,0.79-62.2,2.104c-51.978,2.52-65.143,5.501-71.156,8.081c-13.821,5.917-26.805,24.227-36.617,41.796  c-5.781-6.59-14.651-11.456-27.099-11.456c-14.308,0-23.967,4.539-28.718,13.505c-4.589,8.683-2.203,17.679,1.282,22.814  c0.018,0.025,0.035,0.052,0.053,0.077c-13.027,12.501-18.169,20.771-18.169,28.938l-0.001,0.172  c-0.004,0.246-0.008,0.557-0.008,0.927c-0.16,19.112,0.49,38.123,1.884,55.251c-4.171,10.554-4.152,21.752-4.059,24.772v69.656  c0,16.383,13.313,29.714,29.675,29.714h49.18c14.141,0,26.006-9.93,28.99-23.183c36.068,0.941,82.669,1.417,138.825,1.417  s102.756-0.476,138.825-1.417c2.981,13.253,14.844,23.183,28.979,23.183h49.19c16.363,0,29.676-13.331,29.676-29.714v-69.659  C502.763,296.802,502.781,285.599,498.612,275.051z" fill="#20ACC3"/><linearGradient gradientUnits="userSpaceOnUse" id="SVGID_1_" x1="256.0002" x2="256.0002" y1="112.8083" y2="399.1926"><stop offset="0" style="stop-color:#FFFFFF;stop-opacity:0"/><stop offset="1" style="stop-color:#000000;stop-opacity:0.3"/></linearGradient><path d="M498.612,275.051c1.396-17.13,2.046-36.142,1.884-55.253c-0.001-0.366-0.004-0.673-0.007-0.917  l-0.002-0.153c0-8.192-5.141-16.462-18.167-28.964c0.014-0.021,0.027-0.042,0.043-0.063l0.079-0.116  c3.421-5.062,5.792-14.049,1.203-22.727c-4.742-8.953-14.405-13.492-28.72-13.492c-12.435,0-21.304,4.869-27.087,11.46  c-9.813-17.57-22.796-35.881-36.612-41.796c-6.024-2.583-19.192-5.565-71.168-8.084c-27.5-1.333-54.897-1.954-62.552-2.111  l-0.129-0.026l-3.127,0.005l-0.112,0.028c-8.114,0.168-35.107,0.79-62.2,2.104c-51.978,2.52-65.143,5.501-71.156,8.081  c-13.821,5.917-26.805,24.227-36.617,41.796c-5.781-6.59-14.651-11.456-27.099-11.456c-14.308,0-23.967,4.539-28.718,13.505  c-4.589,8.683-2.203,17.679,1.282,22.814c0.018,0.025,0.035,0.052,0.053,0.077c-13.027,12.501-18.169,20.771-18.169,28.938  l-0.001,0.172c-0.004,0.246-0.008,0.557-0.008,0.927c-0.16,19.112,0.49,38.123,1.884,55.251  c-4.171,10.554-4.152,21.752-4.059,24.772v69.656c0,16.383,13.313,29.714,29.675,29.714h49.18c14.141,0,26.006-9.93,28.99-23.183  c36.068,0.941,82.669,1.417,138.825,1.417s102.756-0.476,138.825-1.417c2.981,13.253,14.844,23.183,28.979,23.183h49.19  c16.363,0,29.676-13.331,29.676-29.714v-69.659C502.763,296.802,502.781,285.599,498.612,275.051z" fill="url(#SVGID_1_)"/><g><path d="M96.903,288.647c-7.331,0-13.304,5.964-13.304,13.295c0,7.33,5.973,13.304,13.304,13.304   c7.332,0,13.295-5.974,13.295-13.304C110.198,294.611,104.234,288.647,96.903,288.647z" fill="#FFFFFF"/><path d="M30.202,297.621c-0.019,1.064,0.01,1.709,0.01,1.738c0,0.048,0.009,0.094,0.009,0.152v69.967   c0,4.862,3.941,8.822,8.784,8.822h49.18c4.863,0,8.822-3.96,8.822-8.822v-8.327c-13.143-0.467-24.51-1.017-34.053-1.635   C46.972,358.472,35.966,337.648,30.202,297.621z" fill="#FFFFFF"/><path d="M366.592,299.293c-9.867-2.611-83.147-2.393-110.554-2.09h-0.076c-27.406-0.313-100.687-0.521-110.553,2.09   c-6.713,1.775-9.98,8.271-11.443,12.525h244.068C376.573,307.563,373.306,301.068,366.592,299.293z" fill="#FFFFFF"/><path d="M62.945,182.794c0.826-0.057,3.722-0.104,8.053-0.143c-1.377-3.703-4.9-8.394-13.932-8.394   c-8.584,0-10.084,2.098-10.227,2.335c-0.076,0.143-0.114,0.295-0.124,0.447c0.143,0.028,0.286,0.057,0.418,0.095   c3.789,0.854,10.494,2.364,15.146,5.764C62.517,182.851,62.736,182.814,62.945,182.794z" fill="#FFFFFF"/><path d="M415.098,288.647c-7.331,0-13.294,5.964-13.294,13.295c0,7.33,5.963,13.294,13.294,13.294   c7.33,0,13.294-5.964,13.294-13.294C428.392,294.611,422.428,288.647,415.098,288.647z" fill="#FFFFFF"/><path d="M337.895,189.404c-3.571,0.37-5.356-2.335-6.543-4.122c-1.196-1.813-2.432-3.674-5.471-4.89   c-4.908-1.966-45.457-3-69.881-3.191c-24.424,0.19-64.972,1.225-69.882,3.191c-3.039,1.216-4.273,3.077-5.47,4.89   c-1.188,1.786-2.982,4.501-6.562,4.122c-0.807-0.066-5.29-0.123-12.003-0.161c1.376,6.78,4.159,16.381,9.647,24.329h168.537   c5.487-7.948,8.271-17.549,9.648-24.329C343.194,189.281,338.711,189.337,337.895,189.404z M317.586,207.021H256h-61.587   c-1.835,0-3.324-1.488-3.324-3.324c0-1.835,1.488-3.324,3.324-3.324H256h61.586c1.836,0,3.324,1.488,3.324,3.324   C320.91,205.533,319.422,207.021,317.586,207.021z" fill="#FFFFFF"/><path d="M137.508,256.075c29.182,1.443,68.106,2.459,118.492,2.459c50.387,0,89.311-1.017,118.492-2.459   l4.121-35.857H133.386L137.508,256.075z" fill="#FFFFFF"/><path d="M449.721,182.899c4.644-3.399,11.348-4.919,15.146-5.773c0.133-0.028,0.276-0.057,0.417-0.085   c-0.009-0.152-0.046-0.313-0.132-0.447c-0.143-0.237-1.633-2.335-10.227-2.335c-9.031,0-12.556,4.691-13.922,8.394   c4.33,0.039,7.226,0.086,8.052,0.143C449.264,182.814,449.483,182.851,449.721,182.899z" fill="#FFFFFF"/><path d="M479.604,219.924c0-0.493-0.009-0.864-0.009-1.111c-1.073-5.147-24.063-26.085-30.34-29.086   c-0.114-0.038-0.228-0.095-0.341-0.152c-0.152-0.066-0.296-0.124-0.419-0.152c-1.092-0.057-4.985-0.114-10.701-0.152   c-0.295,0.085-0.608,0.152-0.932,0.152c-0.343,0-0.664-0.067-0.978-0.161c-4.416-0.029-9.744-0.048-15.603-0.066   c-0.37,0.142-0.759,0.228-1.148,0.228c-0.419,0-0.827-0.085-1.207-0.237c-19.655-0.047-44.46-0.038-61.229,0.028   c-1.34,7.207-3.866,16.191-8.566,24.357H452.74c1.699,0,3.124,1.282,3.305,2.973c0.759,7.359,2.611,31.774-5.774,37.224   c-8.451,5.5-72.854,11.415-194.271,11.415s-185.82-5.915-194.271-11.415c-8.385-5.45-6.533-29.865-5.774-37.224   c0.181-1.69,1.605-2.973,3.305-2.973h104.609c-4.71-8.167-7.227-17.15-8.566-24.357c-16.77-0.066-41.573-0.076-61.231-0.028   c-0.379,0.152-0.788,0.237-1.206,0.237c-0.39,0-0.778-0.085-1.159-0.228c-5.85,0.019-11.167,0.038-15.593,0.066   c-0.313,0.094-0.636,0.161-0.978,0.161c-0.333,0-0.637-0.057-0.941-0.152c-5.707,0.038-9.6,0.095-10.692,0.152   c-0.123,0.028-0.266,0.085-0.408,0.152c-0.124,0.057-0.238,0.114-0.361,0.162c-6.277,3-29.258,23.929-30.331,29.086   c0,0.237-0.01,0.608-0.01,1.101c-0.512,60.367,7.293,131.407,30.996,132.955c37.11,2.432,101.921,3.656,192.609,3.656   s155.498-1.225,192.609-3.656C472.312,351.331,480.117,280.291,479.604,219.924z M96.903,321.893   c-10.997,0-19.951-8.955-19.951-19.951S85.906,282,96.903,282s19.942,8.946,19.942,19.942S107.899,321.893,96.903,321.893z    M384.863,317.305c-0.627,0.732-1.548,1.16-2.517,1.16H129.655c-0.969,0-1.89-0.428-2.517-1.16   c-0.636-0.739-0.911-1.718-0.769-2.677c0.114-0.731,2.934-17.957,17.339-21.765c12.725-3.372,107.828-2.355,112.292-2.309   c4.464-0.057,99.566-1.063,112.291,2.309c14.405,3.808,17.226,21.033,17.331,21.765   C385.774,315.588,385.498,316.566,384.863,317.305z M415.098,321.884c-10.996,0-19.941-8.945-19.941-19.941   S404.102,282,415.098,282c10.997,0,19.941,8.946,19.941,19.942S426.095,321.884,415.098,321.884z" fill="#FFFFFF"/><path d="M411.68,226.875c-5.441,0-9.876,4.426-9.876,9.876c0,5.441,4.435,9.867,9.876,9.867   c5.44,0,9.875-4.425,9.875-9.867C421.555,231.301,417.12,226.875,411.68,226.875z" fill="#FFFFFF"/><path d="M100.322,246.618c5.441,0,9.876-4.425,9.876-9.867c0-5.45-4.435-9.876-9.876-9.876   s-9.876,4.426-9.876,9.876C90.446,242.193,94.88,246.618,100.322,246.618z" fill="#FFFFFF"/><path d="M449.046,359.516c-9.543,0.618-20.91,1.168-34.053,1.635v8.327c0,4.862,3.96,8.822,8.812,8.822h49.19   c4.844,0,8.784-3.96,8.784-8.822v-69.967c0-0.059,0-0.104,0.009-0.162c0-0.02,0.02-0.664,0.011-1.72   C476.034,337.648,465.029,358.472,449.046,359.516z" fill="#FFFFFF"/><path d="M100.322,253.265c9.106,0,16.523-7.407,16.523-16.514c0-9.117-7.417-16.523-16.523-16.523   c-9.107,0-16.523,7.407-16.523,16.523C83.798,245.858,91.215,253.265,100.322,253.265z M100.322,226.875   c5.441,0,9.876,4.426,9.876,9.876c0,5.441-4.435,9.867-9.876,9.867s-9.876-4.425-9.876-9.867   C90.446,231.301,94.88,226.875,100.322,226.875z" fill="#052C49"/><path d="M96.903,282c-10.997,0-19.951,8.946-19.951,19.942s8.954,19.951,19.951,19.951s19.942-8.955,19.942-19.951   S107.899,282,96.903,282z M96.903,315.246c-7.331,0-13.304-5.974-13.304-13.304c0-7.331,5.973-13.295,13.304-13.295   c7.332,0,13.295,5.964,13.295,13.295C110.198,309.272,104.234,315.246,96.903,315.246z" fill="#052C49"/><path d="M368.291,292.864c-12.725-3.372-107.827-2.365-112.291-2.309c-4.463-0.047-99.566-1.063-112.292,2.309   c-14.405,3.808-17.226,21.033-17.339,21.765c-0.143,0.959,0.132,1.938,0.769,2.677c0.627,0.732,1.548,1.16,2.517,1.16h252.691   c0.969,0,1.89-0.428,2.517-1.16c0.636-0.739,0.911-1.718,0.76-2.677C385.517,313.897,382.697,296.672,368.291,292.864z    M133.966,311.818c1.462-4.255,4.729-10.75,11.443-12.525c9.867-2.611,83.147-2.403,110.553-2.09h0.076   c27.406-0.303,100.687-0.521,110.554,2.09c6.714,1.775,9.98,8.271,11.442,12.525H133.966z" fill="#052C49"/><path d="M484.106,277.518c1.567-17.559,2.317-37.481,2.146-57.651c0-0.531-0.009-0.921-0.009-1.139   c0-3.913-5.441-10.959-16.182-20.949c-2.943-2.734-8.509-7.739-13.446-11.215c3.353-1.52,7.397-2.431,9.715-2.953   c2.45-0.551,3.466-0.778,4.312-2.003c0.911-1.348,2.175-4.758,0.417-8.082c-2.107-3.979-7.388-5.917-16.133-5.917   c-14.862,0-19.421,9.763-20.807,14.995c-3.847-0.028-8.262-0.047-13.029-0.057c-4.548-9.097-20.948-40.206-35.477-46.426   c-15.545-6.666-117.923-8.84-129.546-9.068c-0.019,0-0.039,0.009-0.057,0.009c-0.028,0-0.047-0.009-0.076-0.009   c-11.623,0.228-114.01,2.403-129.546,9.068c-14.529,6.22-30.929,37.33-35.478,46.426c-4.767,0.01-9.183,0.029-13.038,0.048   c-1.377-5.223-5.945-14.985-20.807-14.985c-8.745,0-14.016,1.938-16.124,5.917c-1.756,3.323-0.494,6.733,0.427,8.091   c0.836,1.216,1.853,1.443,4.302,1.994c2.317,0.522,6.363,1.434,9.715,2.953c-4.938,3.476-10.502,8.48-13.446,11.215   c-10.74,9.99-16.182,17.036-16.182,20.949c0,0.218-0.01,0.608-0.01,1.139c-0.171,20.17,0.58,40.093,2.146,57.651   c-4.7,8.983-4.368,20.844-4.32,22.059v69.901c0,8.527,6.922,15.469,15.431,15.469h49.18c8.528,0,15.469-6.941,15.469-15.469v-8.11   c37.624,1.206,88.599,1.813,152.346,1.813s114.722-0.607,152.346-1.813v8.11c0,8.527,6.942,15.469,15.459,15.469h49.19   c8.509,0,15.431-6.941,15.431-15.469v-69.901C488.473,298.362,488.807,286.502,484.106,277.518z M454.925,174.258   c8.594,0,10.084,2.098,10.227,2.335c0.086,0.133,0.123,0.295,0.132,0.447c-0.141,0.028-0.284,0.057-0.417,0.085   c-3.798,0.854-10.502,2.374-15.146,5.773c-0.238-0.047-0.457-0.085-0.666-0.104c-0.826-0.057-3.722-0.104-8.052-0.143   C442.369,178.948,445.894,174.258,454.925,174.258z M128.999,142.227c12.136-5.194,95.73-7.92,127.001-8.528   c31.271,0.608,114.864,3.333,127.001,8.528c10.18,4.368,23.797,27.273,30.605,40.301c-19.979-0.047-43.947-0.029-59.674,0.057   c-0.094-0.009-0.189-0.009-0.284,0c-8.232,0.038-14.15,0.104-15.953,0.18c-0.229-0.294-0.551-0.779-0.798-1.149   c-1.425-2.156-3.571-5.413-8.546-7.398c-7.532-3.01-61.574-3.58-72.324-3.665c-0.009,0-0.009,0-0.019,0h-0.038   c-10.75,0.085-64.792,0.655-72.323,3.665c-4.976,1.985-7.122,5.242-8.546,7.398c-0.247,0.37-0.57,0.854-0.797,1.149   c-1.805-0.076-7.73-0.142-15.954-0.18c-0.095-0.009-0.189-0.009-0.284,0c-15.726-0.086-39.694-0.104-59.674-0.066   C105.203,169.5,118.82,146.595,128.999,142.227z M171.732,213.571c-5.489-7.948-8.271-17.549-9.647-24.329   c6.713,0.038,11.196,0.095,12.003,0.161c3.58,0.38,5.374-2.335,6.562-4.122c1.197-1.813,2.431-3.674,5.47-4.89   c4.91-1.966,45.458-3,69.882-3.191c24.424,0.19,64.973,1.225,69.881,3.191c3.039,1.216,4.274,3.077,5.471,4.89   c1.187,1.786,2.972,4.492,6.543,4.122c0.816-0.066,5.299-0.123,12.022-0.161c-1.377,6.78-4.161,16.381-9.648,24.329H171.732z    M378.614,220.218l-4.121,35.857c-29.182,1.443-68.105,2.459-118.492,2.459c-50.386,0-89.311-1.017-118.492-2.459l-4.122-35.857   H378.614z M47.134,177.135c-0.132-0.038-0.275-0.067-0.418-0.095c0.01-0.152,0.048-0.304,0.124-0.447   c0.142-0.237,1.643-2.335,10.227-2.335c9.031,0,12.554,4.691,13.932,8.394c-4.331,0.039-7.227,0.086-8.053,0.143   c-0.209,0.02-0.428,0.057-0.665,0.104C57.627,179.499,50.923,177.99,47.134,177.135z M97.007,369.478   c0,4.862-3.959,8.822-8.822,8.822h-49.18c-4.843,0-8.784-3.96-8.784-8.822v-69.967c0-0.059-0.009-0.104-0.009-0.152   c0-0.029-0.029-0.674-0.01-1.738c5.764,40.027,16.77,60.852,32.751,61.896c9.543,0.618,20.911,1.168,34.053,1.635V369.478z    M256,356.535c-90.688,0-155.499-1.225-192.609-3.656c-23.703-1.548-31.508-72.588-30.996-132.955c0-0.493,0.01-0.864,0.01-1.101   c1.073-5.157,24.053-26.086,30.331-29.086c0.123-0.048,0.237-0.105,0.361-0.162c0.142-0.066,0.285-0.124,0.408-0.152   c1.092-0.057,4.986-0.114,10.692-0.152c0.304,0.095,0.608,0.152,0.941,0.152c0.341,0,0.665-0.067,0.978-0.161   c4.426-0.029,9.743-0.048,15.593-0.066c0.38,0.142,0.769,0.228,1.159,0.228c0.417,0,0.826-0.085,1.206-0.237   c19.658-0.047,44.461-0.038,61.231,0.028c1.339,7.207,3.855,16.191,8.566,24.357H59.26c-1.7,0-3.125,1.282-3.305,2.973   c-0.759,7.359-2.611,31.774,5.774,37.224c8.451,5.5,72.854,11.415,194.271,11.415s185.819-5.915,194.271-11.415   c8.386-5.45,6.533-29.865,5.774-37.224c-0.181-1.69-1.605-2.973-3.305-2.973H348.131c4.7-8.167,7.227-17.15,8.566-24.357   c16.77-0.066,41.574-0.076,61.229-0.028c0.38,0.152,0.788,0.237,1.207,0.237c0.39,0,0.778-0.085,1.148-0.228   c5.858,0.019,11.187,0.038,15.603,0.066c0.313,0.094,0.635,0.161,0.978,0.161c0.323,0,0.637-0.067,0.932-0.152   c5.716,0.038,9.609,0.095,10.701,0.152c0.123,0.028,0.267,0.085,0.419,0.152c0.113,0.057,0.227,0.114,0.341,0.152   c6.277,3.001,29.267,23.939,30.34,29.086c0,0.247,0.009,0.618,0.009,1.111c0.514,60.367-7.292,131.407-30.994,132.955   C411.498,355.31,346.688,356.535,256,356.535z M130.775,255.734c-42.618-2.327-62.37-5.556-65.428-7.53   c-3.105-2.023-4.017-15.527-3.048-27.986h64.393L130.775,255.734z M381.226,255.734l4.082-35.516h64.395   c0.968,12.459,0.056,25.963-3.05,27.986C443.595,250.178,423.844,253.407,381.226,255.734z M481.788,299.349   c-0.009,0.058-0.009,0.104-0.009,0.162v69.967c0,4.862-3.94,8.822-8.784,8.822h-49.19c-4.852,0-8.812-3.96-8.812-8.822v-8.327   c13.143-0.467,24.51-1.017,34.053-1.635c15.982-1.044,26.988-21.868,32.753-61.887C481.808,298.685,481.788,299.33,481.788,299.349   z" fill="#052C49"/><path d="M411.68,220.228c-9.108,0-16.523,7.407-16.523,16.523c0,9.106,7.415,16.514,16.523,16.514   c9.105,0,16.522-7.407,16.522-16.514C428.202,227.635,420.785,220.228,411.68,220.228z M411.68,246.618   c-5.441,0-9.876-4.425-9.876-9.867c0-5.45,4.435-9.876,9.876-9.876c5.44,0,9.875,4.426,9.875,9.876   C421.555,242.193,417.12,246.618,411.68,246.618z" fill="#052C49"/><path d="M317.586,200.373H256h-61.587c-1.835,0-3.324,1.488-3.324,3.324c0,1.836,1.488,3.324,3.324,3.324H256   h61.586c1.836,0,3.324-1.488,3.324-3.324C320.91,201.862,319.422,200.373,317.586,200.373z" fill="#052C49"/><path d="M415.098,282c-10.996,0-19.941,8.946-19.941,19.942s8.945,19.941,19.941,19.941   c10.997,0,19.941-8.945,19.941-19.941S426.095,282,415.098,282z M415.098,315.236c-7.331,0-13.294-5.964-13.294-13.294   c0-7.331,5.963-13.295,13.294-13.295c7.33,0,13.294,5.964,13.294,13.295C428.392,309.272,422.428,315.236,415.098,315.236z" fill="#052C49"/></g></svg>